<?xml version="1.0" encoding="UTF-8" standalone="no"?>
<svg width="200" height="200" viewBox="0 0 200 200" xmlns="http://www.w3.org/2000/svg" shape-rendering="geometricPrecision">
  <defs>
    <clipPath id="circle-clip">
      <circle cx="100" cy="100" r="100"/>
    </clipPath>
    <linearGradient id="sky-grad" x1="0" y1="0" x2="0" y2="200" gradientUnits="userSpaceOnUse">
      <stop offset="0" stop-color="#e8f3fb"/>
      <stop offset="1" stop-color="#92bfdb"/>
    </linearGradient>
  </defs>
  <g clip-path="url(#circle-clip)">
    <rect x="0" y="0" width="200" height="200" fill="url(#sky-grad)"/>
    <path d="M 72 78 Q 64 138   64 196 L 92 196 Q 84 138   84 78 Z" fill="#8a5224"/>
    <line x1="73.50847457627118" y1="100" x2="82.49152542372882" y2="100" stroke="#5c3514" stroke-width="2" stroke-linecap="round"/>
    <line x1="71.47457627118644" y1="130" x2="84.52542372881356" y2="130" stroke="#5c3514" stroke-width="2" stroke-linecap="round"/>
    <line x1="69.4406779661017" y1="160" x2="86.5593220338983" y2="160" stroke="#5c3514" stroke-width="2" stroke-linecap="round"/>
    <circle cx="128" cy="78" r="42" fill="#f0d650"/>
    <path d="M 128 34.5 A 43.5 43.5 0 0 1 128 121.5 Z" fill="#f0d650"/>
    <path d="M 78 78 C 110.6896551724138 47.22413793103448 121.37931034482759 39.44827586206897 120 38 C 99.3103448275862 20.775862068965516 76.62068965517241 76.55172413793103 78 78 Z" fill="#13491c"/>
    <path d="M 78 78 C 110.76761005698225 72.23342315019443 150.38173931820444 65.96323077933717 150 64 C 127.23238994301775 45.76657684980557 77.61826068179555 76.03676922066283 78 78 Z" fill="#13491c"/>
    <path d="M 78 78 C 104.85450836162948 112.15471237266732 149.56613908436267 95.9523741203679 150 94 C 133.14549163837052 83.84528762733268 78.43386091563731 76.0476258796321 78 78 Z" fill="#13491c"/>
    <path d="M 78 78 C 89.03984489160851 132.9601551083915 118.58578643762691 121.41421356237309 120 120 C 120.96015510839149 117.03984489160851 79.41421356237309 76.58578643762691 78 78 Z" fill="#13491c"/>
    <path d="M 78 78 C 48 58.49999999999999 26 76 26 78 C 36 91.5 78 80 78 78 Z" fill="#13491c"/>
    <path d="M 78 78 C 70.5999788000636 39.37501324996025 49.69599660801018 28.94000211999364 48 30 C 41.4000211999364 42.62498675003975 76.30400339198982 79.05999788000636 78 78 Z" fill="#13491c"/>
    <path d="M 78 78 C 50.066542639668015 104.20548320647302 48.27244219820313 124.99225794895183 50 126 C 63.933457360331985 125.79451679352698 79.72755780179686 79.00774205104817 78 78 Z" fill="#13491c"/>
    <path d="M 113.63515398032192 38.53290992699185 A 42 42 0 1 1 113.63515398032192 117.46709007300815" fill="none" stroke="#d65442" stroke-width="3" stroke-linecap="round"/>
    <path d="M 78 78 C 109.6551724137931 46.137931034482754 121.37931034482759 39.44827586206897 120 38 C 100.3448275862069 21.862068965517246 76.62068965517241 76.55172413793103 78 78 Z" fill="#2a8b3e"/>
    <path d="M 78 78 C 110.4813055683289 70.76100006569156 150.38173931820444 65.96323077933717 150 64 C 127.5186944316711 47.238999934308445 77.61826068179555 76.03676922066283 78 78 Z" fill="#2a8b3e"/>
    <path d="M 78 78 C 105.17990404835747 110.69043178239139 149.56613908436267 95.9523741203679 150 94 C 132.82009595164254 85.30956821760861 78.43386091563731 76.0476258796321 78 78 Z" fill="#2a8b3e"/>
    <path d="M 78 78 C 90.10050506338834 131.89949493661166 118.58578643762691 121.41421356237309 120 120 C 119.89949493661166 118.10050506338834 79.41421356237309 76.58578643762691 78 78 Z" fill="#2a8b3e"/>
    <path d="M 78 78 C 48 60 26 76 26 78 C 36 90 78 80 78 78 Z" fill="#2a8b3e"/>
    <path d="M 78 78 C 69.32798134405597 40.17001165996502 49.69599660801018 28.94000211999364 48 30 C 42.67201865594403 41.82998834003498 76.30400339198982 79.05999788000636 78 78 Z" fill="#2a8b3e"/>
    <path d="M 78 78 C 51.362210991015665 104.96128974475914 48.27244219820313 124.99225794895183 50 126 C 62.637789008984335 125.03871025524086 79.72755780179686 79.00774205104817 78 78 Z" fill="#2a8b3e"/>
    <circle cx="80" cy="89" r="4.5" fill="#b07a44"/>
  </g>
</svg>
