<?xml version="1.0" encoding="UTF-8" standalone="no"?>
<svg width="220" height="220" viewBox="0 0 200 200" xmlns="http://www.w3.org/2000/svg" shape-rendering="geometricPrecision" data-om-id="jsx:/https:/019e2550-6190-7341-beab-da7e8692f1fc.claudeusercontent.com/v1/design/projects/019e2550-6190-7341-beab-da7e8692f1fc/serve/vector-icon.jsx:5414:136:5" data-cc-id="cc-15" xmlns:xlink="http://www.w3.org/1999/xlink"><defs data-om-id="jsx:/https:/019e2550-6190-7341-beab-da7e8692f1fc.claudeusercontent.com/v1/design/projects/019e2550-6190-7341-beab-da7e8692f1fc/serve/vector-icon.jsx:5570:139:7"><clipPath id="circle-clip-r2" data-om-id="jsx:/https:/019e2550-6190-7341-beab-da7e8692f1fc.claudeusercontent.com/v1/design/projects/019e2550-6190-7341-beab-da7e8692f1fc/serve/vector-icon.jsx:5585:140:9"><circle cx="100" cy="100" r="100" data-om-id="jsx:/https:/019e2550-6190-7341-beab-da7e8692f1fc.claudeusercontent.com/v1/design/projects/019e2550-6190-7341-beab-da7e8692f1fc/serve/vector-icon.jsx:5618:141:11"/></clipPath><linearGradient id="sky-grad-r2" x1="0" y1="0" x2="0" y2="142" gradientUnits="userSpaceOnUse" data-om-id="jsx:/https:/019e2550-6190-7341-beab-da7e8692f1fc.claudeusercontent.com/v1/design/projects/019e2550-6190-7341-beab-da7e8692f1fc/serve/vector-icon.jsx:5764:144:9"><stop offset="0" stop-color="#e8f3fb" data-om-id="jsx:/https:/019e2550-6190-7341-beab-da7e8692f1fc.claudeusercontent.com/v1/design/projects/019e2550-6190-7341-beab-da7e8692f1fc/serve/vector-icon.jsx:5867:145:11"/><stop offset="0.55" stop-color="#bdd9ec" data-om-id="jsx:/https:/019e2550-6190-7341-beab-da7e8692f1fc.claudeusercontent.com/v1/design/projects/019e2550-6190-7341-beab-da7e8692f1fc/serve/vector-icon.jsx:5917:146:11"/><stop offset="1" stop-color="#92bfdb" data-om-id="jsx:/https:/019e2550-6190-7341-beab-da7e8692f1fc.claudeusercontent.com/v1/design/projects/019e2550-6190-7341-beab-da7e8692f1fc/serve/vector-icon.jsx:5968:147:11"/></linearGradient><linearGradient id="ocean-grad-r2" x1="0" y1="142" x2="0" y2="162" gradientUnits="userSpaceOnUse" data-om-id="jsx:/https:/019e2550-6190-7341-beab-da7e8692f1fc.claudeusercontent.com/v1/design/projects/019e2550-6190-7341-beab-da7e8692f1fc/serve/vector-icon.jsx:6171:151:9"><stop offset="0" stop-color="#6ab5ad" data-om-id="jsx:/https:/019e2550-6190-7341-beab-da7e8692f1fc.claudeusercontent.com/v1/design/projects/019e2550-6190-7341-beab-da7e8692f1fc/serve/vector-icon.jsx:6278:152:11"/><stop offset="1" stop-color="#3a8a87" data-om-id="jsx:/https:/019e2550-6190-7341-beab-da7e8692f1fc.claudeusercontent.com/v1/design/projects/019e2550-6190-7341-beab-da7e8692f1fc/serve/vector-icon.jsx:6328:153:11"/></linearGradient><linearGradient id="sand-grad-r2" x1="0" y1="162" x2="0" y2="200" gradientUnits="userSpaceOnUse" data-om-id="jsx:/https:/019e2550-6190-7341-beab-da7e8692f1fc.claudeusercontent.com/v1/design/projects/019e2550-6190-7341-beab-da7e8692f1fc/serve/vector-icon.jsx:6473:156:9"><stop offset="0" stop-color="#faecd0" data-om-id="jsx:/https:/019e2550-6190-7341-beab-da7e8692f1fc.claudeusercontent.com/v1/design/projects/019e2550-6190-7341-beab-da7e8692f1fc/serve/vector-icon.jsx:6579:157:11"/><stop offset="0.55" stop-color="#f3e3c8" data-om-id="jsx:/https:/019e2550-6190-7341-beab-da7e8692f1fc.claudeusercontent.com/v1/design/projects/019e2550-6190-7341-beab-da7e8692f1fc/serve/vector-icon.jsx:6629:158:11"/><stop offset="1" stop-color="#e7ceaa" data-om-id="jsx:/https:/019e2550-6190-7341-beab-da7e8692f1fc.claudeusercontent.com/v1/design/projects/019e2550-6190-7341-beab-da7e8692f1fc/serve/vector-icon.jsx:6681:159:11"/></linearGradient></defs><g data-om-id="jsx:/https:/019e2550-6190-7341-beab-da7e8692f1fc.claudeusercontent.com/v1/design/projects/019e2550-6190-7341-beab-da7e8692f1fc/serve/vector-icon.jsx:6770:162:7"><path d="M 72 78 Q 64 138   64 196 L 92 196 Q 84 138   84 78 Z" fill="#8a5224" data-om-id="jsx:/https:/019e2550-6190-7341-beab-da7e8692f1fc.claudeusercontent.com/v1/design/projects/019e2550-6190-7341-beab-da7e8692f1fc/serve/vector-icon.jsx:8617:185:9" data-cc-id="cc-44"/><line x1="73.50847457627118" y1="100" x2="82.49152542372882" y2="100" stroke="#5c3514" stroke-width="2" stroke-linecap="round" data-om-id="jsx:/https:/019e2550-6190-7341-beab-da7e8692f1fc.claudeusercontent.com/v1/design/projects/019e2550-6190-7341-beab-da7e8692f1fc/serve/vector-icon.jsx:8868:190:13"/><line x1="71.47457627118644" y1="130" x2="84.52542372881356" y2="130" stroke="#5c3514" stroke-width="2" stroke-linecap="round" data-om-id="jsx:/https:/019e2550-6190-7341-beab-da7e8692f1fc.claudeusercontent.com/v1/design/projects/019e2550-6190-7341-beab-da7e8692f1fc/serve/vector-icon.jsx:8868:190:13"/><line x1="69.4406779661017" y1="160" x2="86.5593220338983" y2="160" stroke="#5c3514" stroke-width="2" stroke-linecap="round" data-om-id="jsx:/https:/019e2550-6190-7341-beab-da7e8692f1fc.claudeusercontent.com/v1/design/projects/019e2550-6190-7341-beab-da7e8692f1fc/serve/vector-icon.jsx:8868:190:13"/><circle cx="128" cy="78" r="42" fill="#f0d650" data-om-id="jsx:/https:/019e2550-6190-7341-beab-da7e8692f1fc.claudeusercontent.com/v1/design/projects/019e2550-6190-7341-beab-da7e8692f1fc/serve/vector-icon.jsx:9139:198:9"/><path d="M 128 34.5&#10;                  A 43.5 43.5 0 0 1 128 121.5 Z" fill="#f0d650" data-om-id="jsx:/https:/019e2550-6190-7341-beab-da7e8692f1fc.claudeusercontent.com/v1/design/projects/019e2550-6190-7341-beab-da7e8692f1fc/serve/vector-icon.jsx:9422:203:9" data-cc-id="cc-16"/><path d="M 78 78&#10;            C 110.6896551724138 47.22413793103448&#10;              121.37931034482759 39.44827586206897&#10;              120 38&#10;            C 99.3103448275862 20.775862068965516&#10;              76.62068965517241 76.55172413793103&#10;              78 78 Z" fill="#13491c" data-om-id="jsx:/https:/019e2550-6190-7341-beab-da7e8692f1fc.claudeusercontent.com/v1/design/projects/019e2550-6190-7341-beab-da7e8692f1fc/serve/vector-icon.jsx:9701:209:11"/><path d="M 78 78&#10;            C 110.76761005698225 72.23342315019443&#10;              150.38173931820444 65.96323077933717&#10;              150 64&#10;            C 127.23238994301775 45.76657684980557&#10;              77.61826068179555 76.03676922066283&#10;              78 78 Z" fill="#13491c" data-om-id="jsx:/https:/019e2550-6190-7341-beab-da7e8692f1fc.claudeusercontent.com/v1/design/projects/019e2550-6190-7341-beab-da7e8692f1fc/serve/vector-icon.jsx:9701:209:11"/><path d="M 78 78&#10;            C 104.85450836162948 112.15471237266732&#10;              149.56613908436267 95.9523741203679&#10;              150 94&#10;            C 133.14549163837052 83.84528762733268&#10;              78.43386091563731 76.0476258796321&#10;              78 78 Z" fill="#13491c" data-om-id="jsx:/https:/019e2550-6190-7341-beab-da7e8692f1fc.claudeusercontent.com/v1/design/projects/019e2550-6190-7341-beab-da7e8692f1fc/serve/vector-icon.jsx:9701:209:11"/><path d="M 78 78&#10;            C 89.03984489160851 132.9601551083915&#10;              118.58578643762691 121.41421356237309&#10;              120 120&#10;            C 120.96015510839149 117.03984489160851&#10;              79.41421356237309 76.58578643762691&#10;              78 78 Z" fill="#13491c" data-om-id="jsx:/https:/019e2550-6190-7341-beab-da7e8692f1fc.claudeusercontent.com/v1/design/projects/019e2550-6190-7341-beab-da7e8692f1fc/serve/vector-icon.jsx:9701:209:11"/><path d="M 78 78&#10;            C 48 58.49999999999999&#10;              26 76&#10;              26 78&#10;            C 36 91.5&#10;              78 80&#10;              78 78 Z" fill="#13491c" data-om-id="jsx:/https:/019e2550-6190-7341-beab-da7e8692f1fc.claudeusercontent.com/v1/design/projects/019e2550-6190-7341-beab-da7e8692f1fc/serve/vector-icon.jsx:9701:209:11" data-cc-id="cc-57"/><path d="M 78 78&#10;            C 70.5999788000636 39.37501324996025&#10;              49.69599660801018 28.94000211999364&#10;              48 30&#10;            C 41.4000211999364 42.62498675003975&#10;              76.30400339198982 79.05999788000636&#10;              78 78 Z" fill="#13491c" data-om-id="jsx:/https:/019e2550-6190-7341-beab-da7e8692f1fc.claudeusercontent.com/v1/design/projects/019e2550-6190-7341-beab-da7e8692f1fc/serve/vector-icon.jsx:9701:209:11"/><path d="M 78 78&#10;            C 50.066542639668015 104.20548320647302&#10;              48.27244219820313 124.99225794895183&#10;              50 126&#10;            C 63.933457360331985 125.79451679352698&#10;              79.72755780179686 79.00774205104817&#10;              78 78 Z" fill="#13491c" data-om-id="jsx:/https:/019e2550-6190-7341-beab-da7e8692f1fc.claudeusercontent.com/v1/design/projects/019e2550-6190-7341-beab-da7e8692f1fc/serve/vector-icon.jsx:9701:209:11"/><path d="M 113.63515398032192 38.53290992699185 A 42 42 0 1 1 113.63515398032192 117.46709007300815" fill="none" stroke="#d65442" stroke-width="3" stroke-linecap="round" data-om-id="jsx:/https:/019e2550-6190-7341-beab-da7e8692f1fc.claudeusercontent.com/v1/design/projects/019e2550-6190-7341-beab-da7e8692f1fc/serve/vector-icon.jsx:11037:233:13"/><path d="M 78 78&#10;            C 109.6551724137931 46.137931034482754&#10;              121.37931034482759 39.44827586206897&#10;              120 38&#10;            C 100.3448275862069 21.862068965517246&#10;              76.62068965517241 76.55172413793103&#10;              78 78 Z" fill="#2a8b3e" data-om-id="jsx:/https:/019e2550-6190-7341-beab-da7e8692f1fc.claudeusercontent.com/v1/design/projects/019e2550-6190-7341-beab-da7e8692f1fc/serve/vector-icon.jsx:11419:242:11"/><path d="M 78 78&#10;            C 110.4813055683289 70.76100006569156&#10;              150.38173931820444 65.96323077933717&#10;              150 64&#10;            C 127.5186944316711 47.238999934308445&#10;              77.61826068179555 76.03676922066283&#10;              78 78 Z" fill="#2a8b3e" data-om-id="jsx:/https:/019e2550-6190-7341-beab-da7e8692f1fc.claudeusercontent.com/v1/design/projects/019e2550-6190-7341-beab-da7e8692f1fc/serve/vector-icon.jsx:11419:242:11"/><path d="M 78 78&#10;            C 105.17990404835747 110.69043178239139&#10;              149.56613908436267 95.9523741203679&#10;              150 94&#10;            C 132.82009595164254 85.30956821760861&#10;              78.43386091563731 76.0476258796321&#10;              78 78 Z" fill="#2a8b3e" data-om-id="jsx:/https:/019e2550-6190-7341-beab-da7e8692f1fc.claudeusercontent.com/v1/design/projects/019e2550-6190-7341-beab-da7e8692f1fc/serve/vector-icon.jsx:11419:242:11"/><path d="M 78 78&#10;            C 90.10050506338834 131.89949493661166&#10;              118.58578643762691 121.41421356237309&#10;              120 120&#10;            C 119.89949493661166 118.10050506338834&#10;              79.41421356237309 76.58578643762691&#10;              78 78 Z" fill="#2a8b3e" data-om-id="jsx:/https:/019e2550-6190-7341-beab-da7e8692f1fc.claudeusercontent.com/v1/design/projects/019e2550-6190-7341-beab-da7e8692f1fc/serve/vector-icon.jsx:11419:242:11"/><path d="M 78 78&#10;            C 48 60&#10;              26 76&#10;              26 78&#10;            C 36 90&#10;              78 80&#10;              78 78 Z" fill="#2a8b3e" data-om-id="jsx:/https:/019e2550-6190-7341-beab-da7e8692f1fc.claudeusercontent.com/v1/design/projects/019e2550-6190-7341-beab-da7e8692f1fc/serve/vector-icon.jsx:11419:242:11" data-cc-id="cc-43"/><path d="M 78 78&#10;            C 69.32798134405597 40.17001165996502&#10;              49.69599660801018 28.94000211999364&#10;              48 30&#10;            C 42.67201865594403 41.82998834003498&#10;              76.30400339198982 79.05999788000636&#10;              78 78 Z" fill="#2a8b3e" data-om-id="jsx:/https:/019e2550-6190-7341-beab-da7e8692f1fc.claudeusercontent.com/v1/design/projects/019e2550-6190-7341-beab-da7e8692f1fc/serve/vector-icon.jsx:11419:242:11" data-cc-id="cc-58"/><path d="M 78 78&#10;            C 51.362210991015665 104.96128974475914&#10;              48.27244219820313 124.99225794895183&#10;              50 126&#10;            C 62.637789008984335 125.03871025524086&#10;              79.72755780179686 79.00774205104817&#10;              78 78 Z" fill="#2a8b3e" data-om-id="jsx:/https:/019e2550-6190-7341-beab-da7e8692f1fc.claudeusercontent.com/v1/design/projects/019e2550-6190-7341-beab-da7e8692f1fc/serve/vector-icon.jsx:11419:242:11"/><circle cx="80" cy="89" r="4.5" fill="#b07a44" data-om-id="jsx:/https:/019e2550-6190-7341-beab-da7e8692f1fc.claudeusercontent.com/v1/design/projects/019e2550-6190-7341-beab-da7e8692f1fc/serve/vector-icon.jsx:11606:247:9"/></g></svg>